STARTFONT 2.1
FONT -Adobe-ITC Bookman-Demi-R-Normal--25-180-100-100-P-149-ISO8859-1
SIZE 18 100 100
FONTBOUNDINGBOX 38 24 -5 -6

STARTPROPERTIES 26
_DEC_DEVICE_FONTNAMES "PS=Bookman-Demi"
FONTNAME_REGISTRY ""
FAMILY_NAME "ITC Bookman"
FOUNDRY "Adobe"
WEIGHT_NAME "Demi"
SLANT "R"
SETWIDTH_NAME "Normal"
ADD_STYLE_NAME ""
PIXEL_SIZE 25
POINT_SIZE 180
RESOLUTION_X 100
RESOLUTION_Y 100
SPACING "P"
AVERAGE_WIDTH 149
CHARSET_REGISTRY "ISO8859"
CHARSET_ENCODING "1"
CHARSET_COLLECTIONS "ASCII ISO8859-1 ADOBE-STANDARD"
FULL_NAME "ITC Bookman Demi"
COPYRIGHT "Copyright (c) 1991 Adobe Systems, Inc."
CAP_HEIGHT 17
X_HEIGHT 12
WEIGHT 10
QUAD_WIDTH 18
DEFAULT_CHAR 0
FONT_DESCENT 6
FONT_ASCENT 18
ENDPROPERTIES

CHARS 190

STARTCHAR space
ENCODING 32
SWIDTH 399 0
DWIDTH 9 0
BBX 1 1 0 0
BITMAP
00
ENDCHAR

STARTCHAR exclam
ENCODING 33
SWIDTH 365 0
DWIDTH 9 0
BBX 5 17 2 0
BITMAP
70
F8
F8
F8
F8
F8
F8
F8
70
70
70
70
20
00
70
70
70
ENDCHAR

STARTCHAR quotedbl
ENCODING 34
SWIDTH 431 0
DWIDTH 11 0
BBX 8 8 1 9
BITMAP
42
E7
E7
E7
E7
E7
E7
42
ENDCHAR

STARTCHAR numbersign
ENCODING 35
SWIDTH 647 0
DWIDTH 16 0
BBX 13 17 1 0
BITMAP
0C60
0C60
0C60
0C60
0C60
7FF8
7FF8
18C0
18C0
18C0
FFF0
FFF0
3180
3180
3180
3180
3180
ENDCHAR

STARTCHAR dollar
ENCODING 36
SWIDTH 667 0
DWIDTH 16 0
BBX 13 20 1 -2
BITMAP
0300
0300
0300
0FC0
3FF0
78F8
7078
7830
7E00
3FC0
07F0
61F8
F078
F078
7870
7FE0
1FC0
0300
0300
0300
ENDCHAR

STARTCHAR percent
ENCODING 37
SWIDTH 936 0
DWIDTH 24 0
BBX 22 17 0 0
BITMAP
1E0300
7F8600
738600
E1CC00
E1CC00
E1D800
E1D800
73B1E0
7FB7F8
1E6738
006E1C
00CE1C
00CE1C
018E1C
018738
0307F8
0301E0
ENDCHAR

STARTCHAR ampersand
ENCODING 38
SWIDTH 792 0
DWIDTH 20 0
BBX 17 17 1 0
BITMAP
0F8000
1FC000
3CE000
3CE000
3CE000
3FDF80
1F9F80
0F8600
3FC600
7BE600
79FC00
F0FC00
F07C00
F83C00
7C7E00
7FEF80
1FC780
ENDCHAR

STARTCHAR quoteright
ENCODING 39
SWIDTH 324 0
DWIDTH 8 0
BBX 3 5 2 12
BITMAP
E0
E0
E0
60
C0
ENDCHAR

STARTCHAR parenleft
ENCODING 40
SWIDTH 310 0
DWIDTH 8 0
BBX 6 21 1 -4
BITMAP
1C
3C
78
70
F0
E0
E0
E0
E0
E0
E0
E0
E0
E0
E0
E0
F0
70
78
3C
1C
ENDCHAR

STARTCHAR parenright
ENCODING 41
SWIDTH 310 0
DWIDTH 8 0
BBX 6 21 1 -4
BITMAP
E0
F0
78
38
3C
1C
1C
1C
1C
1C
1C
1C
1C
1C
1C
1C
3C
38
78
F0
E0
ENDCHAR

STARTCHAR asterisk
ENCODING 42
SWIDTH 466 0
DWIDTH 12 0
BBX 8 8 2 9
BITMAP
18
DB
FF
3C
3C
FF
DB
18
ENDCHAR

STARTCHAR plus
ENCODING 43
SWIDTH 620 0
DWIDTH 15 0
BBX 12 12 1 0
BITMAP
0600
0600
0600
0600
0600
FFF0
FFF0
0600
0600
0600
0600
0600
ENDCHAR

STARTCHAR comma
ENCODING 44
SWIDTH 342 0
DWIDTH 8 0
BBX 3 5 2 -2
BITMAP
E0
E0
E0
60
C0
ENDCHAR

STARTCHAR minus
ENCODING 45
SWIDTH 606 0
DWIDTH 15 0
BBX 12 2 1 5
BITMAP
FFF0
FFF0
ENDCHAR

STARTCHAR period
ENCODING 46
SWIDTH 346 0
DWIDTH 8 0
BBX 3 3 2 0
BITMAP
E0
E0
E0
ENDCHAR

STARTCHAR slash
ENCODING 47
SWIDTH 380 0
DWIDTH 11 0
BBX 11 20 -1 -3
BITMAP
0060
0060
00C0
00C0
0180
0180
0300
0300
0600
0600
0C00
0C00
1800
1800
3000
3000
6000
6000
C000
C000
ENDCHAR

STARTCHAR zero
ENCODING 48
SWIDTH 667 0
DWIDTH 16 0
BBX 15 17 0 0
BITMAP
0FE0
3FF8
3C78
783C
783C
F83E
F01E
F01E
F01E
F01E
F01E
F83E
783C
783C
3C78
3FF8
0FE0
ENDCHAR

STARTCHAR one
ENCODING 49
SWIDTH 667 0
DWIDTH 16 0
BBX 10 17 4 0
BITMAP
0E00
FE00
FE00
1E00
1E00
1E00
1E00
1E00
1E00
1E00
1E00
1E00
1E00
1E00
1E00
FFC0
FFC0
ENDCHAR

STARTCHAR two
ENCODING 50
SWIDTH 667 0
DWIDTH 16 0
BBX 14 17 0 0
BITMAP
1FE0
7FF8
F078
F03C
F83C
F83C
707C
0078
00F8
01F0
03E0
0780
0F0C
3E1C
FFFC
FFF8
FFF8
ENDCHAR

STARTCHAR three
ENCODING 51
SWIDTH 667 0
DWIDTH 16 0
BBX 15 17 0 0
BITMAP
0FE0
3FF8
787C
7C3C
7C3C
387C
00F8
07E0
07F8
007C
003E
703E
F83E
F83E
787C
7FF8
1FE0
ENDCHAR

STARTCHAR four
ENCODING 52
SWIDTH 667 0
DWIDTH 16 0
BBX 15 17 0 0
BITMAP
00F0
01F0
03F0
07F0
06F0
0EF0
1CF0
38F0
38F0
70F0
E0F0
FFFE
7FFC
00F0
00F0
03FC
03FC
ENDCHAR

STARTCHAR five
ENCODING 53
SWIDTH 667 0
DWIDTH 16 0
BBX 14 18 0 0
BITMAP
0018
7FF8
7FF0
7FF0
6000
6000
67C0
7FF0
78F8
7078
207C
003C
703C
F87C
F878
F8F8
7FF0
1FC0
ENDCHAR

STARTCHAR six
ENCODING 54
SWIDTH 667 0
DWIDTH 16 0
BBX 15 17 0 0
BITMAP
0FF0
3FFC
3C3E
783E
781C
F000
F3F0
FFFC
FC3C
F83E
F01E
F01E
F01E
783E
7C3C
3FFC
0FF0
ENDCHAR

STARTCHAR seven
ENCODING 55
SWIDTH 667 0
DWIDTH 16 0
BBX 13 17 1 0
BITMAP
7FF8
7FF8
7FF8
E038
C070
00E0
01E0
03C0
0780
0780
0F00
0F00
1F00
1E00
3E00
3E00
3E00
ENDCHAR

STARTCHAR eight
ENCODING 56
SWIDTH 667 0
DWIDTH 16 0
BBX 15 17 0 0
BITMAP
0FE0
3FF8
7C7C
783C
F83C
783C
7EF8
3FE0
0FF8
3DFC
787C
F03E
F01E
F01C
783C
7FF8
1FE0
ENDCHAR

STARTCHAR nine
ENCODING 57
SWIDTH 667 0
DWIDTH 16 0
BBX 15 17 0 0
BITMAP
1FE0
7FF8
787C
F87C
F03C
F03E
F03E
F87E
F87E
7FFE
3F9E
003C
703C
F87C
F8F8
7FF0
1FC0
ENDCHAR

STARTCHAR colon
ENCODING 58
SWIDTH 346 0
DWIDTH 8 0
BBX 3 12 2 0
BITMAP
E0
E0
E0
00
00
00
00
00
00
E0
E0
E0
ENDCHAR

STARTCHAR semicolon
ENCODING 59
SWIDTH 348 0
DWIDTH 8 0
BBX 3 14 2 -2
BITMAP
E0
E0
E0
00
00
00
00
00
00
E0
E0
E0
60
C0
ENDCHAR

STARTCHAR less
ENCODING 60
SWIDTH 620 0
DWIDTH 15 0
BBX 13 13 1 0
BITMAP
0038
00F8
03E0
0F80
3E00
F800
E000
F800
3E00
0F80
03E0
00F8
0038
ENDCHAR

STARTCHAR equal
ENCODING 61
SWIDTH 620 0
DWIDTH 15 0
BBX 12 6 1 3
BITMAP
FFF0
FFF0
0000
0000
FFF0
FFF0
ENDCHAR

STARTCHAR greater
ENCODING 62
SWIDTH 620 0
DWIDTH 15 0
BBX 13 13 1 0
BITMAP
E000
F800
3E00
0F80
03E0
00F8
0038
00F8
03E0
0F80
3E00
F800
E000
ENDCHAR

STARTCHAR question
ENCODING 63
SWIDTH 669 0
DWIDTH 16 0
BBX 13 17 1 0
BITMAP
1FC0
7FF0
F1F0
F0F8
F0F8
60F8
01F0
03E0
0780
0F00
0E00
0E00
0E00
0000
0E00
0E00
0E00
ENDCHAR

STARTCHAR at
ENCODING 64
SWIDTH 819 0
DWIDTH 21 0
BBX 18 17 1 0
BITMAP
03F000
0FFC00
1C0E00
300300
60E980
63BD80
C318C0
C618C0
C638C0
C63180
C67180
67F300
63DE00
300180
1C0700
0FFE00
03F800
ENDCHAR

STARTCHAR A
ENCODING 65
SWIDTH 729 0
DWIDTH 18 0
BBX 19 17 -1 0
BITMAP
007000
00F000
00F800
01F800
01F800
03FC00
033C00
073E00
061E00
0E1E00
0FFF00
1FFF00
1C0F00
380780
380780
FE1FE0
FE1FE0
ENDCHAR

STARTCHAR B
ENCODING 66
SWIDTH 720 0
DWIDTH 18 0
BBX 17 17 0 0
BITMAP
FFF800
FFFE00
3C3E00
3C1F00
3C1F00
3C1E00
3C1E00
3FF800
3FFE00
3C1F00
3C0F00
3C0F80
3C0F80
3C0F00
3C1F00
FFFE00
FFF800
ENDCHAR

STARTCHAR C
ENCODING 67
SWIDTH 731 0
DWIDTH 18 0
BBX 16 17 0 0
BITMAP
03E6
0FFE
3E3E
3C0E
7C07
7803
F800
F800
F800
F800
F800
7800
7C03
3C07
3F1E
0FFC
03F0
ENDCHAR

STARTCHAR D
ENCODING 68
SWIDTH 782 0
DWIDTH 18 0
BBX 17 17 0 0
BITMAP
FFF000
FFFC00
3C3E00
3C0F00
3C0F00
3C0780
3C0780
3C0780
3C0780
3C0780
3C0780
3C0780
3C0F00
3C0F00
3C3E00
FFFC00
FFF000
ENDCHAR

STARTCHAR E
ENCODING 69
SWIDTH 724 0
DWIDTH 18 0
BBX 17 17 0 0
BITMAP
FFFE00
FFFE00
3C1F00
3C0300
3C6000
3C6000
3CE000
3FE000
3FE000
3CE000
3C6000
3C6000
3C0180
3C0380
3C1F00
FFFF00
FFFE00
ENDCHAR

STARTCHAR F
ENCODING 70
SWIDTH 687 0
DWIDTH 16 0
BBX 16 17 0 0
BITMAP
FFFE
FFFE
3C1F
3C03
3C60
3C60
3CE0
3FE0
3FE0
3CE0
3C60
3C60
3C00
3C00
3C00
FF00
FF00
ENDCHAR

STARTCHAR G
ENCODING 71
SWIDTH 780 0
DWIDTH 19 0
BBX 19 17 0 0
BITMAP
03E600
0FFE00
1E3E00
3C0E00
7C0700
780300
F80000
F80000
F80000
F81FE0
F80FC0
780780
7C0780
3C0F80
3E1F80
0FFF80
03F980
ENDCHAR

STARTCHAR H
ENCODING 72
SWIDTH 820 0
DWIDTH 20 0
BBX 19 17 0 0
BITMAP
FF1FE0
FF1FE0
3C0780
3C0780
3C0780
3C0780
3C0780
3FFF80
3FFF80
3C0780
3C0780
3C0780
3C0780
3C0780
3C0780
FF1FE0
FF1FE0
ENDCHAR

STARTCHAR I
ENCODING 73
SWIDTH 399 0
DWIDTH 10 0
BBX 8 17 1 0
BITMAP
FF
FF
3C
3C
3C
3C
3C
3C
3C
3C
3C
3C
3C
3C
3C
FF
FF
ENDCHAR

STARTCHAR J
ENCODING 74
SWIDTH 642 0
DWIDTH 16 0
BBX 15 17 0 0
BITMAP
01FE
01FE
0078
0078
0078
0078
0078
0078
0078
0078
7078
F878
F878
F0F8
79F0
7FF0
1FC0
ENDCHAR

STARTCHAR K
ENCODING 75
SWIDTH 790 0
DWIDTH 19 0
BBX 18 17 0 0
BITMAP
FF3FC0
FF3FC0
3C0E00
3C1C00
3C3800
3C7000
3CE000
3DE000
3FF000
3EF000
3C7800
3C7C00
3C3C00
3C1E00
3C1F00
FF3FC0
FF3FC0
ENDCHAR

STARTCHAR L
ENCODING 76
SWIDTH 641 0
DWIDTH 16 0
BBX 15 17 1 0
BITMAP
FF00
FF00
3C00
3C00
3C00
3C00
3C00
3C00
3C00
3C00
3C00
3C00
3C06
3C0E
3C3C
FFFC
FFF8
ENDCHAR

STARTCHAR M
ENCODING 77
SWIDTH 945 0
DWIDTH 23 0
BBX 22 17 0 0
BITMAP
FE01FC
FE01FC
3E01F0
3F03F0
3F03F0
3783F0
3786F0
37C6F0
33CEF0
33ECF0
31ECF0
31ECF0
31F8F0
30F8F0
30F8F0
FC73FC
FC73FC
ENDCHAR

STARTCHAR N
ENCODING 78
SWIDTH 745 0
DWIDTH 19 0
BBX 18 17 0 0
BITMAP
FF0FC0
FF8FC0
3F8300
37C300
33C300
33E300
31E300
31F300
30F300
30FB00
307B00
307F00
303F00
303F00
301F00
FC1F00
FC0F00
ENDCHAR

STARTCHAR O
ENCODING 79
SWIDTH 803 0
DWIDTH 19 0
BBX 18 17 0 0
BITMAP
03F000
0FFC00
3E1F00
3C0F00
7C0F80
780780
F807C0
F807C0
F807C0
F807C0
F807C0
780780
7C0780
3C0F00
3E1E00
0FFC00
03F000
ENDCHAR

STARTCHAR P
ENCODING 80
SWIDTH 659 0
DWIDTH 16 0
BBX 15 17 0 0
BITMAP
FFF0
FFFC
3C3C
3C1E
3C1E
3C1E
3C1E
3C3E
3FFC
3FF0
3C00
3C00
3C00
3C00
3C00
FF00
FF00
ENDCHAR

STARTCHAR Q
ENCODING 81
SWIDTH 790 0
DWIDTH 19 0
BBX 18 23 0 -6
BITMAP
03F000
0FFC00
3E1F00
3C0F00
7C0F80
780780
F807C0
F807C0
F807C0
F807C0
F807C0
780780
7CF780
3DFF00
3FCE00
0FFF80
07FFC0
0003C0
3003C0
7807C0
781F80
3FFF00
0FFC00
ENDCHAR

STARTCHAR R
ENCODING 82
SWIDTH 776 0
DWIDTH 19 0
BBX 18 17 0 0
BITMAP
FFFC00
FFFE00
3C1F00
3C0F00
3C0F00
3C0F00
3C1F00
3C3E00
3FFC00
3FF000
3CF800
3C7C00
3C7C00
3C3E00
3C1F00
FF1FC0
FF0FC0
ENDCHAR

STARTCHAR S
ENCODING 83
SWIDTH 660 0
DWIDTH 16 0
BBX 15 17 0 0
BITMAP
1FCC
7FFC
7C7C
F81C
F80E
7E06
7F80
3FE0
0FF8
03FC
00FE
C03E
E01E
701E
7C3E
3FFC
37F8
ENDCHAR

STARTCHAR T
ENCODING 84
SWIDTH 694 0
DWIDTH 18 0
BBX 18 17 0 0
BITMAP
7FFF80
7FFF80
F1E3C0
E1E1C0
C1E0C0
01E000
01E000
01E000
01E000
01E000
01E000
01E000
01E000
01E000
01E000
03F000
0FFC00
ENDCHAR

STARTCHAR U
ENCODING 85
SWIDTH 737 0
DWIDTH 18 0
BBX 18 17 0 0
BITMAP
FF1FC0
FF1FC0
3C0700
3C0700
3C0700
3C0700
3C0700
3C0700
3C0700
3C0700
3C0700
3C0700
3C0700
3E0F00
1E0E00
1FFE00
07F800
ENDCHAR

STARTCHAR V
ENCODING 86
SWIDTH 696 0
DWIDTH 20 0
BBX 19 17 0 0
BITMAP
FF87E0
FF87E0
3E0380
1E0780
1F0700
0F0700
0F0E00
0F8E00
078E00
07DC00
03DC00
03D800
03F800
01F000
01F000
00F000
00E000
ENDCHAR

STARTCHAR W
ENCODING 87
SWIDTH 929 0
DWIDTH 25 0
BBX 25 17 0 0
BITMAP
FF7FBF80
FF7FBF80
3E3E0E00
3E1E0E00
1E1E0C00
1F1F1C00
1F0F1C00
0F1F1800
0F9FB800
0F9FB000
07B7B000
07B7E000
03F3E000
03F3E000
03E1C000
01E1C000
01E1C000
ENDCHAR

STARTCHAR X
ENCODING 88
SWIDTH 769 0
DWIDTH 20 0
BBX 19 17 0 0
BITMAP
7FDFC0
7FDFC0
1F0700
0F8600
078C00
07D800
03F000
01E000
00F000
01F800
03FC00
077C00
0E3E00
1C1F00
3C0F80
FF3FE0
FF3FE0
ENDCHAR

STARTCHAR Y
ENCODING 89
SWIDTH 683 0
DWIDTH 18 0
BBX 18 17 0 0
BITMAP
FF9FC0
FF9FC0
3E0700
1F0E00
1F0C00
0F9C00
07B800
07F000
03F000
01E000
01E000
01E000
01E000
01E000
01E000
07F800
07F800
ENDCHAR

STARTCHAR Z
ENCODING 90
SWIDTH 636 0
DWIDTH 16 0
BBX 16 17 0 0
BITMAP
3FFE
3FFE
7C3E
707C
E0F8
00F0
01F0
03E0
07C0
0780
0F00
1F00
3E07
7C0E
F83E
FFFC
FFFC
ENDCHAR

STARTCHAR bracketleft
ENCODING 91
SWIDTH 306 0
DWIDTH 8 0
BBX 5 21 1 -4
BITMAP
F8
F8
E0
E0
E0
E0
E0
E0
E0
E0
E0
E0
E0
E0
E0
E0
E0
E0
E0
F8
F8
ENDCHAR

STARTCHAR backslash
ENCODING 92
SWIDTH 593 0
DWIDTH 15 0
BBX 7 17 3 0
BITMAP
C0
C0
C0
60
60
60
30
30
30
18
18
18
0C
0C
0C
06
06
ENDCHAR

STARTCHAR bracketright
ENCODING 93
SWIDTH 306 0
DWIDTH 8 0
BBX 5 21 1 -4
BITMAP
F8
F8
38
38
38
38
38
38
38
38
38
38
38
38
38
38
38
38
38
F8
F8
ENDCHAR

STARTCHAR asciicircum
ENCODING 94
SWIDTH 620 0
DWIDTH 15 0
BBX 9 9 3 8
BITMAP
1C00
1C00
3E00
3600
3600
6300
6300
C180
C180
ENDCHAR

STARTCHAR underscore
ENCODING 95
SWIDTH 902 0
DWIDTH 13 0
BBX 13 2 0 -5
BITMAP
FFF8
FFF8
ENDCHAR

STARTCHAR quoteleft
ENCODING 96
SWIDTH 324 0
DWIDTH 8 0
BBX 3 5 2 12
BITMAP
60
C0
E0
E0
E0
ENDCHAR

STARTCHAR a
ENCODING 97
SWIDTH 581 0
DWIDTH 14 0
BBX 14 12 0 0
BITMAP
1F80
7FE0
F8F0
F0F0
61F0
1FF0
7EF0
F8F0
F0F0
F9F0
FFFC
7FBC
ENDCHAR

STARTCHAR b
ENCODING 98
SWIDTH 601 0
DWIDTH 15 0
BBX 15 17 -1 0
BITMAP
1C00
FC00
FC00
3C00
3C00
3DF0
3FFC
3E3C
3C1E
3C1E
3C1E
3C1E
3C1E
3C1E
3E3C
3F7C
3BF0
ENDCHAR

STARTCHAR c
ENCODING 99
SWIDTH 570 0
DWIDTH 13 0
BBX 12 12 0 0
BITMAP
1FC0
7FE0
78F0
F0E0
F000
F000
F000
F000
F820
7C70
7FE0
1FC0
ENDCHAR

STARTCHAR d
ENCODING 100
SWIDTH 643 0
DWIDTH 15 0
BBX 15 17 0 0
BITMAP
0038
01F8
01F8
0078
0078
1F78
7FF8
78F8
F878
F078
F078
F078
F078
F878
78F8
7FFE
3F7E
ENDCHAR

STARTCHAR e
ENCODING 101
SWIDTH 568 0
DWIDTH 14 0
BBX 13 12 0 0
BITMAP
1FC0
7DF0
78F0
F8F8
FFF8
FFF8
F000
F000
F810
7C78
7FF0
1FC0
ENDCHAR

STARTCHAR f
ENCODING 102
SWIDTH 385 0
DWIDTH 10 0
BBX 11 17 0 0
BITMAP
07C0
1FE0
3CE0
3C00
3C00
FF80
FF80
3C00
3C00
3C00
3C00
3C00
3C00
3C00
3C00
FF00
FF00
ENDCHAR

STARTCHAR g
ENCODING 103
SWIDTH 574 0
DWIDTH 14 0
BBX 14 21 0 -6
BITMAP
0018
007C
007C
1FC0
7FE0
79F0
F0F0
F0F0
F0F0
79E0
3FE0
7B80
7000
7F80
3FF0
7FF8
EFFC
C03C
E07C
7FF8
1FF0
ENDCHAR

STARTCHAR h
ENCODING 104
SWIDTH 668 0
DWIDTH 17 0
BBX 16 17 0 0
BITMAP
1C00
FC00
FC00
3C00
3C00
3DF0
3FF8
3E7C
3C3C
3C3C
3C3C
3C3C
3C3C
3C3C
3C3C
FE7F
FE7F
ENDCHAR

STARTCHAR i
ENCODING 105
SWIDTH 355 0
DWIDTH 10 0
BBX 8 17 1 0
BITMAP
38
7C
7C
38
00
3C
FC
FC
3C
3C
3C
3C
3C
3C
3C
FF
FF
ENDCHAR

STARTCHAR j
ENCODING 106
SWIDTH 345 0
DWIDTH 9 0
BBX 10 23 -3 -6
BITMAP
0380
07C0
07C0
0380
0000
03C0
0FC0
0FC0
03C0
03C0
03C0
03C0
03C0
03C0
03C0
03C0
03C0
03C0
03C0
E3C0
F780
FF80
3E00
ENDCHAR

STARTCHAR k
ENCODING 107
SWIDTH 645 0
DWIDTH 16 0
BBX 15 17 0 0
BITMAP
1C00
FC00
FC00
3C00
3C00
3CFC
3CFC
3CF0
3DC0
3F80
3F80
3FC0
3DE0
3CF0
3C78
FEFE
FEFE
ENDCHAR

STARTCHAR l
ENCODING 108
SWIDTH 343 0
DWIDTH 9 0
BBX 8 17 0 0
BITMAP
1C
FC
FC
3C
3C
3C
3C
3C
3C
3C
3C
3C
3C
3C
3C
FF
FF
ENDCHAR

STARTCHAR m
ENCODING 109
SWIDTH 973 0
DWIDTH 24 0
BBX 24 12 0 0
BITMAP
1DF3F8
FFFFFC
FE7E7C
3C3C3C
3C3C3C
3C3C3C
3C3C3C
3C3C3C
3C3C3C
3C3C3C
FF7EFF
FF7EFF
ENDCHAR

STARTCHAR n
ENCODING 110
SWIDTH 672 0
DWIDTH 17 0
BBX 16 12 0 0
BITMAP
1DF0
FFF8
FE7C
3C3C
3C3C
3C3C
3C3C
3C3C
3C3C
3C3C
FE7F
FE7F
ENDCHAR

STARTCHAR o
ENCODING 111
SWIDTH 616 0
DWIDTH 16 0
BBX 14 12 0 0
BITMAP
1FE0
7FF8
7878
F87C
F03C
F03C
F03C
F03C
F87C
7878
7FF8
1FE0
ENDCHAR

STARTCHAR p
ENCODING 112
SWIDTH 639 0
DWIDTH 15 0
BBX 15 18 -1 -6
BITMAP
3DF0
FFFC
FE3C
3C3E
3C1E
3C1E
3C1E
3C1E
3C3E
3E3C
3FFC
3DF0
3C00
3C00
3C00
3C00
FF00
FF00
ENDCHAR

STARTCHAR q
ENCODING 113
SWIDTH 626 0
DWIDTH 15 0
BBX 15 18 0 -6
BITMAP
1F38
7FF8
78F8
F878
F078
F078
F078
F078
F878
78F8
7FF8
3F78
0078
0078
0078
0078
01FE
01FE
ENDCHAR

STARTCHAR r
ENCODING 114
SWIDTH 462 0
DWIDTH 12 0
BBX 11 12 0 0
BITMAP
3DC0
FFE0
FFE0
3CC0
3C00
3C00
3C00
3C00
3C00
3C00
FF00
FF00
ENDCHAR

STARTCHAR s
ENCODING 115
SWIDTH 512 0
DWIDTH 13 0
BBX 12 12 0 0
BITMAP
1F60
7FE0
F0E0
F060
FE00
7F80
1FE0
C7F0
E0F0
F0F0
7FE0
77C0
ENDCHAR

STARTCHAR t
ENCODING 116
SWIDTH 464 0
DWIDTH 11 0
BBX 10 16 0 0
BITMAP
1C00
1C00
1C00
3C00
FF80
FF80
3C00
3C00
3C00
3C00
3C00
3C00
3C00
3CC0
1FC0
0F80
ENDCHAR

STARTCHAR u
ENCODING 117
SWIDTH 660 0
DWIDTH 16 0
BBX 16 12 -1 0
BITMAP
1C1C
FCFC
FCFC
3C3C
3C3C
3C3C
3C3C
3C3C
3C3C
3E7C
1FFF
0FDF
ENDCHAR

STARTCHAR v
ENCODING 118
SWIDTH 585 0
DWIDTH 14 0
BBX 14 12 -1 0
BITMAP
FE7C
FE7C
3C38
3C70
3C70
1E60
1EE0
0EC0
0FC0
0FC0
0780
0780
ENDCHAR

STARTCHAR w
ENCODING 119
SWIDTH 803 0
DWIDTH 18 0
BBX 20 12 -2 0
BITMAP
FEFDF0
FEFDF0
3C70E0
3C78C0
3C79C0
1EF980
1EFD80
0F9F00
0F9F00
0F9E00
070E00
070E00
ENDCHAR

STARTCHAR x
ENCODING 120
SWIDTH 597 0
DWIDTH 15 0
BBX 14 12 0 0
BITMAP
FEF8
FEF8
3C60
1EC0
0F80
0700
0780
0FC0
1DE0
38F0
FDFC
FDFC
ENDCHAR

STARTCHAR y
ENCODING 121
SWIDTH 607 0
DWIDTH 14 0
BBX 15 18 -1 -6
BITMAP
FF7E
FF7E
3C18
3C38
1E30
1E70
0E60
0FE0
07C0
07C0
0380
0380
0380
0300
6700
FE00
FE00
7C00
ENDCHAR

STARTCHAR z
ENCODING 122
SWIDTH 565 0
DWIDTH 12 0
BBX 11 12 0 0
BITMAP
7FE0
7FE0
F3E0
C7C0
0F80
0F00
1E00
3C00
7860
F8E0
FFC0
FFC0
ENDCHAR

STARTCHAR braceleft
ENCODING 123
SWIDTH 314 0
DWIDTH 9 0
BBX 7 21 1 -4
BITMAP
1E
38
38
38
38
38
38
38
38
70
E0
70
38
38
38
38
38
38
38
3C
1E
ENDCHAR

STARTCHAR bar
ENCODING 124
SWIDTH 620 0
DWIDTH 16 0
BBX 2 17 7 0
BITMAP
C0
C0
C0
C0
C0
C0
C0
C0
C0
C0
C0
C0
C0
C0
C0
C0
C0
ENDCHAR

STARTCHAR braceright
ENCODING 125
SWIDTH 314 0
DWIDTH 9 0
BBX 7 21 1 -4
BITMAP
F0
38
38
38
38
38
38
38
38
1C
0E
1C
38
38
38
38
38
38
38
38
F0
ENDCHAR

STARTCHAR asciitilde
ENCODING 126
SWIDTH 620 0
DWIDTH 15 0
BBX 13 4 1 4
BITMAP
3C10
7F38
E7F0
41E0
ENDCHAR

STARTCHAR exclamdown
ENCODING 161
SWIDTH 365 0
DWIDTH 9 0
BBX 5 17 2 -5
BITMAP
70
70
70
00
20
70
70
70
70
F8
F8
F8
F8
F8
F8
F8
70
ENDCHAR

STARTCHAR cent
ENCODING 162
SWIDTH 667 0
DWIDTH 16 0
BBX 10 17 3 0
BITMAP
0C00
0C00
0C00
0C00
3F80
7FC0
F1C0
E1C0
E000
E000
F0C0
7F80
3F00
0C00
0C00
0C00
0C00
ENDCHAR

STARTCHAR sterling
ENCODING 163
SWIDTH 667 0
DWIDTH 16 0
BBX 15 17 0 0
BITMAP
03F0
0FF8
0E1C
1E1C
1E3C
1E18
0F00
7FF0
7FF0
0700
0780
0780
779C
FF1E
CFC6
FFFE
7CFC
ENDCHAR

STARTCHAR currency
ENCODING 164
SWIDTH 511 0
DWIDTH 16 0
BBX 10 10 3 4
BITMAP
DEC0
FFC0
7380
E1C0
E1C0
E1C0
E1C0
7380
FFC0
DEC0
ENDCHAR

STARTCHAR yen
ENCODING 165
SWIDTH 667 0
DWIDTH 16 0
BBX 16 17 0 0
BITMAP
FE3F
FE3F
3C1C
1E38
1E30
0F60
3F7C
3FFC
03C0
03C0
3FFC
3FFC
03C0
03C0
03C0
07E0
0FF0
ENDCHAR

STARTCHAR brokenbar
ENCODING 166
SWIDTH 620 0
DWIDTH 16 0
BBX 2 17 7 0
BITMAP
C0
C0
C0
C0
C0
C0
00
00
00
00
00
C0
C0
C0
C0
C0
C0
ENDCHAR

STARTCHAR section
ENCODING 167
SWIDTH 595 0
DWIDTH 15 0
BBX 12 21 1 -4
BITMAP
1F80
7FE0
F1F0
F1F0
F0E0
7C00
1F80
7FE0
F7E0
E1F0
E070
F870
7EF0
7FE0
1FC0
03E0
70F0
F8F0
F8F0
7FE0
1F80
ENDCHAR

STARTCHAR dieresis
ENCODING 168
SWIDTH 510 0
DWIDTH 13 0
BBX 7 2 3 14
BITMAP
C6
C6
ENDCHAR

STARTCHAR copyright
ENCODING 169
SWIDTH 747 0
DWIDTH 19 0
BBX 17 17 1 0
BITMAP
03E000
0FF800
3C1E00
300600
61F300
633300
C61180
C60180
C60180
C60180
C60180
633300
61E300
300600
3C1E00
0FF800
03E000
ENDCHAR

STARTCHAR ordfeminine
ENCODING 170
SWIDTH 400 0
DWIDTH 10 0
BBX 8 10 1 7
BITMAP
7C
EE
C6
3E
F6
C6
FF
7B
00
FF
ENDCHAR

STARTCHAR guillemotleft
ENCODING 171
SWIDTH 394 0
DWIDTH 12 0
BBX 10 9 0 2
BITMAP
0840
18C0
39C0
7380
E700
7380
39C0
18C0
0840
ENDCHAR

STARTCHAR logicalnot
ENCODING 172
SWIDTH 606 0
DWIDTH 15 0
BBX 12 8 1 1
BITMAP
FFF0
FFF0
0030
0030
0030
0030
0030
0030
ENDCHAR

STARTCHAR hyphen
ENCODING 173
SWIDTH 360 0
DWIDTH 8 0
BBX 7 2 0 5
BITMAP
FE
FE
ENDCHAR

STARTCHAR registered
ENCODING 174
SWIDTH 747 0
DWIDTH 19 0
BBX 17 17 1 0
BITMAP
03E000
0FF800
3C1E00
300600
67E300
633300
C33180
C33180
C3C180
C36180
C36180
633300
67BB00
300600
3C1E00
0FF800
03E000
ENDCHAR

STARTCHAR macron
ENCODING 175
SWIDTH 451 0
DWIDTH 11 0
BBX 7 2 2 14
BITMAP
FE
FE
ENDCHAR

STARTCHAR degree
ENCODING 176
SWIDTH 400 0
DWIDTH 9 0
BBX 8 7 0 10
BITMAP
3C
66
C3
C3
C3
66
3C
ENDCHAR

STARTCHAR plusminus
ENCODING 177
SWIDTH 620 0
DWIDTH 15 0
BBX 12 12 1 0
BITMAP
0600
0600
0600
FFF0
FFF0
0600
0600
0600
0000
0000
FFF0
FFF0
ENDCHAR

STARTCHAR twosuperior
ENCODING 178
SWIDTH 667 0
DWIDTH 9 0
BBX 9 10 0 7
BITMAP
7E00
E700
C700
0700
0E00
1C00
3800
7180
FF00
FF00
ENDCHAR

STARTCHAR threesuperior
ENCODING 179
SWIDTH 667 0
DWIDTH 9 0
BBX 8 10 0 7
BITMAP
7E
E7
C7
0E
3C
0E
07
C7
EE
7C
ENDCHAR

STARTCHAR acute
ENCODING 180
SWIDTH 393 0
DWIDTH 10 0
BBX 6 4 2 13
BITMAP
1C
3C
78
E0
ENDCHAR

STARTCHAR mu
ENCODING 181
SWIDTH 660 0
DWIDTH 16 0
BBX 16 18 -1 -6
BITMAP
1C1C
FCFC
FCFC
3C3C
3C3C
3C3C
3C3C
3C3C
3C3C
3E7C
3FFF
3FDF
3800
7800
7C00
7C00
7C00
3800
ENDCHAR

STARTCHAR paragraph
ENCODING 182
SWIDTH 791 0
DWIDTH 20 0
BBX 16 19 2 -2
BITMAP
1FFF
7FFF
7FDC
FFDC
FFDC
FFDC
FFDC
7FDC
7FDC
1FDC
01DC
01DC
01DC
01DC
01DC
01DC
01DC
07FF
07FF
ENDCHAR

STARTCHAR periodcentered
ENCODING 183
SWIDTH 346 0
DWIDTH 8 0
BBX 3 3 2 5
BITMAP
E0
E0
E0
ENDCHAR

STARTCHAR cedilla
ENCODING 184
SWIDTH 352 0
DWIDTH 9 0
BBX 6 5 1 -5
BITMAP
30
38
8C
FC
78
ENDCHAR

STARTCHAR onesuperior
ENCODING 185
SWIDTH 667 0
DWIDTH 9 0
BBX 7 10 1 7
BITMAP
18
F8
38
38
38
38
38
38
38
FE
ENDCHAR

STARTCHAR ordmasculine
ENCODING 186
SWIDTH 400 0
DWIDTH 10 0
BBX 8 10 1 7
BITMAP
3C
7E
E7
C3
C3
E7
7E
3C
00
FF
ENDCHAR

STARTCHAR guillemotright
ENCODING 187
SWIDTH 394 0
DWIDTH 12 0
BBX 10 9 1 2
BITMAP
8400
C600
E700
7380
39C0
7380
E700
C600
8400
ENDCHAR

STARTCHAR onequarter
ENCODING 188
SWIDTH 111 0
DWIDTH 24 0
BBX 20 17 1 0
BITMAP
180300
F80300
380600
380C00
380C00
381800
383000
3831C0
3863C0
FEC7C0
00C5C0
018DC0
0319C0
0331D0
063FF0
0C01C0
0C03E0
ENDCHAR

STARTCHAR onehalf
ENCODING 189
SWIDTH 111 0
DWIDTH 24 0
BBX 21 17 1 0
BITMAP
180300
F80300
380600
380C00
380C00
381800
383000
3827E0
386E70
FECC70
00C070
0180E0
0301C0
030380
060718
0C0FF0
0C0FF0
ENDCHAR

STARTCHAR threequarters
ENCODING 190
SWIDTH 111 0
DWIDTH 24 0
BBX 20 17 1 0
BITMAP
7E0300
E70300
C70600
0E0C00
3C0C00
0E1800
073000
C731C0
EE63C0
7CC7C0
00C5C0
018DC0
0319C0
0331D0
063FF0
0C01C0
0C03E0
ENDCHAR

STARTCHAR questiondown
ENCODING 191
SWIDTH 669 0
DWIDTH 16 0
BBX 13 18 1 -6
BITMAP
0380
0380
0380
0000
0380
0380
0380
0780
0F00
3E00
7C00
7800
F830
F878
F878
7C78
7FF0
1FE0
ENDCHAR

STARTCHAR Agrave
ENCODING 192
SWIDTH 729 0
DWIDTH 18 0
BBX 19 18 -1 0
BITMAP
038000
03C000
01E000
007000
000000
00E000
01F000
01F800
033C00
071C00
061E00
0FFF00
1FFF00
1C0780
380780
3803C0
FE1FE0
FE1FE0
ENDCHAR

STARTCHAR Aacute
ENCODING 193
SWIDTH 729 0
DWIDTH 18 0
BBX 19 18 -1 0
BITMAP
007000
00F000
01E000
038000
000000
00E000
01F000
01F800
033C00
071C00
061E00
0FFF00
1FFF00
1C0780
380780
3803C0
FE1FE0
FE1FE0
ENDCHAR

STARTCHAR Acircumflex
ENCODING 194
SWIDTH 729 0
DWIDTH 18 0
BBX 19 18 -1 0
BITMAP
00C000
01E000
03F000
061800
000000
00E000
01F000
01F800
033C00
071C00
061E00
0FFF00
1FFF00
1C0780
380780
3803C0
FE1FE0
FE1FE0
ENDCHAR

STARTCHAR Atilde
ENCODING 195
SWIDTH 729 0
DWIDTH 18 0
BBX 19 18 -1 0
BITMAP
03CC00
07F800
0CF000
000000
000000
00E000
01F000
01F800
033C00
071C00
061E00
0FFF00
1FFF00
1C0780
380780
3803C0
FE1FE0
FE1FE0
ENDCHAR

STARTCHAR Adieresis
ENCODING 196
SWIDTH 729 0
DWIDTH 18 0
BBX 19 17 -1 0
BITMAP
031800
031800
000000
000000
00E000
01F000
01F800
033C00
071C00
061E00
0FFF00
1FFF00
1C0780
380780
3803C0
FE1FE0
FE1FE0
ENDCHAR

STARTCHAR Aring
ENCODING 197
SWIDTH 729 0
DWIDTH 18 0
BBX 19 18 -1 0
BITMAP
00E000
01B000
01B000
00E000
000000
00E000
01F000
01F800
033C00
071C00
061E00
0FFF00
1FFF00
1C0780
380780
3803C0
FE1FE0
FE1FE0
ENDCHAR

STARTCHAR AE
ENCODING 198
SWIDTH 1149 0
DWIDTH 29 0
BBX 29 17 -1 0
BITMAP
000FFFE0
000FFFE0
001FC1F0
003FC030
003BC600
0073C600
00E3CE00
01C3FE00
01FFFE00
03FFCE00
0783C600
0F03C600
0E03C018
1E03C038
3C03C1F0
FE0FFFF0
FE0FFFE0
ENDCHAR

STARTCHAR Ccedilla
ENCODING 199
SWIDTH 731 0
DWIDTH 18 0
BBX 16 22 0 -5
BITMAP
03E6
0FFE
3E3E
3C0E
7C07
7803
F800
F800
F800
F800
F800
7800
7C03
3C07
3F1E
0FFC
03F0
0180
01C0
0460
07E0
03C0
ENDCHAR

STARTCHAR Egrave
ENCODING 200
SWIDTH 724 0
DWIDTH 18 0
BBX 17 18 0 0
BITMAP
070000
078000
03C000
00E000
000000
FFFE00
FFFE00
3C0F00
3C2300
3C6000
3FE000
3FE000
3C6000
3C2180
3C0380
3C0F00
FFFF00
FFFE00
ENDCHAR

STARTCHAR Eacute
ENCODING 201
SWIDTH 724 0
DWIDTH 18 0
BBX 17 18 0 0
BITMAP
00E000
01E000
03C000
070000
000000
FFFE00
FFFE00
3C0F00
3C2300
3C6000
3FE000
3FE000
3C6000
3C2180
3C0380
3C0F00
FFFF00
FFFE00
ENDCHAR

STARTCHAR Ecircumflex
ENCODING 202
SWIDTH 724 0
DWIDTH 18 0
BBX 17 18 0 0
BITMAP
018000
03C000
07E000
0C3000
000000
FFFE00
FFFE00
3C0F00
3C2300
3C6000
3FE000
3FE000
3C6000
3C2180
3C0380
3C0F00
FFFF00
FFFE00
ENDCHAR

STARTCHAR Edieresis
ENCODING 203
SWIDTH 724 0
DWIDTH 18 0
BBX 17 17 0 0
BITMAP
063000
063000
000000
000000
FFFE00
FFFE00
3C0F00
3C2300
3C6000
3FE000
3FE000
3C6000
3C2180
3C0380
3C0F00
FFFF00
FFFE00
ENDCHAR

STARTCHAR Igrave
ENCODING 204
SWIDTH 399 0
DWIDTH 10 0
BBX 8 18 1 0
BITMAP
70
78
3C
0E
00
FF
FF
3C
3C
3C
3C
3C
3C
3C
3C
3C
FF
FF
ENDCHAR

STARTCHAR Iacute
ENCODING 205
SWIDTH 399 0
DWIDTH 10 0
BBX 8 18 1 0
BITMAP
0E
1E
3C
70
00
FF
FF
3C
3C
3C
3C
3C
3C
3C
3C
3C
FF
FF
ENDCHAR

STARTCHAR Icircumflex
ENCODING 206
SWIDTH 399 0
DWIDTH 10 0
BBX 8 18 1 0
BITMAP
18
3C
7E
C3
00
FF
FF
3C
3C
3C
3C
3C
3C
3C
3C
3C
FF
FF
ENDCHAR

STARTCHAR Idieresis
ENCODING 207
SWIDTH 399 0
DWIDTH 10 0
BBX 8 17 1 0
BITMAP
C6
C6
00
00
FF
FF
3C
3C
3C
3C
3C
3C
3C
3C
3C
FF
FF
ENDCHAR

STARTCHAR Eth
ENCODING 208
SWIDTH 782 0
DWIDTH 18 0
BBX 17 17 0 0
BITMAP
FFF000
FFFC00
3C3E00
3C0F00
3C0F00
3C0780
3C0780
FF8780
FF8780
3C0780
3C0780
3C0780
3C0F00
3C0F00
3C3E00
FFFC00
FFF000
ENDCHAR

STARTCHAR Ntilde
ENCODING 209
SWIDTH 745 0
DWIDTH 19 0
BBX 18 18 0 0
BITMAP
03CC00
07F800
0CF000
000000
000000
FE0FC0
FE0FC0
3F0300
378300
33C300
31C300
30E300
30F300
307B00
303F00
301F00
FC0F00
FC0700
ENDCHAR

STARTCHAR Ograve
ENCODING 210
SWIDTH 803 0
DWIDTH 19 0
BBX 18 18 0 0
BITMAP
038000
03C000
01E000
007000
000000
03F000
0FFC00
3E1F00
7C0F80
780780
F807C0
F807C0
F807C0
780780
7C0F80
3E1F00
0FFC00
03F000
ENDCHAR

STARTCHAR Oacute
ENCODING 211
SWIDTH 803 0
DWIDTH 19 0
BBX 18 18 0 0
BITMAP
007000
00F000
01E000
038000
000000
03F000
0FFC00
3E1F00
7C0F80
780780
F807C0
F807C0
F807C0
780780
7C0F80
3E1F00
0FFC00
03F000
ENDCHAR

STARTCHAR Ocircumflex
ENCODING 212
SWIDTH 803 0
DWIDTH 19 0
BBX 18 18 0 0
BITMAP
00C000
01E000
03F000
061800
000000
03F000
0FFC00
3E1F00
7C0F80
780780
F807C0
F807C0
F807C0
780780
7C0F80
3E1F00
0FFC00
03F000
ENDCHAR

STARTCHAR Otilde
ENCODING 213
SWIDTH 803 0
DWIDTH 19 0
BBX 18 18 0 0
BITMAP
03CC00
07F800
0CF000
000000
000000
03F000
0FFC00
3E1F00
7C0F80
780780
F807C0
F807C0
F807C0
780780
7C0F80
3E1F00
0FFC00
03F000
ENDCHAR

STARTCHAR Odieresis
ENCODING 214
SWIDTH 803 0
DWIDTH 19 0
BBX 18 17 0 0
BITMAP
063000
063000
000000
000000
03F000
0FFC00
3E1F00
7C0F80
780780
F807C0
F807C0
F807C0
780780
7C0F80
3E1F00
0FFC00
03F000
ENDCHAR

STARTCHAR multiply
ENCODING 215
SWIDTH 620 0
DWIDTH 15 0
BBX 12 12 1 0
BITMAP
4020
E070
70E0
39C0
1F80
0F00
0F00
1F80
39C0
70E0
E070
4020
ENDCHAR

STARTCHAR Oslash
ENCODING 216
SWIDTH 804 0
DWIDTH 19 0
BBX 18 19 0 -1
BITMAP
000180
03F380
0FFF00
3E1F00
3C0F00
7C1F80
783F80
F877C0
F867C0
F8C7C0
F987C0
FB87C0
7F0780
7E0780
3C0F00
3E1E00
3FFC00
73F000
600000
ENDCHAR

STARTCHAR Ugrave
ENCODING 217
SWIDTH 737 0
DWIDTH 18 0
BBX 18 18 0 0
BITMAP
038000
03C000
01E000
007000
000000
FF1FC0
FF1FC0
3C0700
3C0700
3C0700
3C0700
3C0700
3C0700
3C0700
3E0F00
1E0E00
1FFE00
07F800
ENDCHAR

STARTCHAR Uacute
ENCODING 218
SWIDTH 737 0
DWIDTH 18 0
BBX 18 18 0 0
BITMAP
007000
00F000
01E000
038000
000000
FF1FC0
FF1FC0
3C0700
3C0700
3C0700
3C0700
3C0700
3C0700
3C0700
3E0F00
1E0E00
1FFE00
07F800
ENDCHAR

STARTCHAR Ucircumflex
ENCODING 219
SWIDTH 737 0
DWIDTH 18 0
BBX 18 18 0 0
BITMAP
00C000
01E000
03F000
061800
000000
FF1FC0
FF1FC0
3C0700
3C0700
3C0700
3C0700
3C0700
3C0700
3C0700
3E0F00
1E0E00
1FFE00
07F800
ENDCHAR

STARTCHAR Udieresis
ENCODING 220
SWIDTH 737 0
DWIDTH 18 0
BBX 18 17 0 0
BITMAP
063000
063000
000000
000000
FF1FC0
FF1FC0
3C0700
3C0700
3C0700
3C0700
3C0700
3C0700
3C0700
3E0F00
1E0E00
1FFE00
07F800
ENDCHAR

STARTCHAR Yacute
ENCODING 221
SWIDTH 683 0
DWIDTH 18 0
BBX 18 18 0 0
BITMAP
001C00
003C00
007800
00E000
000000
FF9FC0
FF9FC0
3C0700
1E0E00
0F1C00
07B800
03F000
01E000
01E000
01E000
01E000
07F800
07F800
ENDCHAR

STARTCHAR Thorn
ENCODING 222
SWIDTH 659 0
DWIDTH 16 0
BBX 15 17 0 0
BITMAP
FF00
FF00
3C00
3C00
3FF0
3FFC
3C3C
3C1E
3C1E
3C1E
3C3E
3FFC
3FF0
3C00
3C00
FF00
FF00
ENDCHAR

STARTCHAR germandbls
ENCODING 223
SWIDTH 652 0
DWIDTH 17 0
BBX 17 20 -1 -3
BITMAP
01F000
07FC00
079E00
0F0E00
0F1E00
3F3C00
3F7800
0F7E00
0F3F00
0F0F00
0F0780
0F0780
0F0780
0F0780
0F0F00
0F7E00
0F7800
1E0000
FC0000
F00000
ENDCHAR

STARTCHAR agrave
ENCODING 224
SWIDTH 581 0
DWIDTH 14 0
BBX 14 17 0 0
BITMAP
0E00
0F00
0780
01C0
0000
1F80
7FE0
F8F0
F0F0
61F0
1FF0
7EF0
F8F0
F0F0
F9F0
FFFC
7FBC
ENDCHAR

STARTCHAR aacute
ENCODING 225
SWIDTH 581 0
DWIDTH 14 0
BBX 14 17 0 0
BITMAP
01C0
03C0
0780
0E00
0000
1F80
7FE0
F8F0
F0F0
61F0
1FF0
7EF0
F8F0
F0F0
F9F0
FFFC
7FBC
ENDCHAR

STARTCHAR acircumflex
ENCODING 226
SWIDTH 581 0
DWIDTH 14 0
BBX 14 17 0 0
BITMAP
0300
0780
0FC0
1860
0000
1F80
7FE0
F8F0
F0F0
61F0
1FF0
7EF0
F8F0
F0F0
F9F0
FFFC
7FBC
ENDCHAR

STARTCHAR atilde
ENCODING 227
SWIDTH 581 0
DWIDTH 14 0
BBX 14 17 0 0
BITMAP
0F30
1FE0
33C0
0000
0000
1F80
7FE0
F8F0
F0F0
61F0
1FF0
7EF0
F8F0
F0F0
F9F0
FFFC
7FBC
ENDCHAR

STARTCHAR adieresis
ENCODING 228
SWIDTH 581 0
DWIDTH 14 0
BBX 14 16 0 0
BITMAP
18C0
18C0
0000
0000
1F80
7FE0
F8F0
F0F0
61F0
1FF0
7EF0
F8F0
F0F0
F9F0
FFFC
7FBC
ENDCHAR

STARTCHAR aring
ENCODING 229
SWIDTH 581 0
DWIDTH 14 0
BBX 14 17 0 0
BITMAP
0700
0D80
0D80
0700
0000
1F80
7FE0
F8F0
F0F0
61F0
1FF0
7EF0
F8F0
F0F0
F9F0
FFFC
7FBC
ENDCHAR

STARTCHAR ae
ENCODING 230
SWIDTH 873 0
DWIDTH 22 0
BBX 21 12 0 0
BITMAP
1F9FC0
7FFDF0
F8F8F0
F0F8F8
61FFF8
1FFFF8
7EF000
F8F000
F0F810
F9FC78
FFFFF0
7F9FC0
ENDCHAR

STARTCHAR ccedilla
ENCODING 231
SWIDTH 570 0
DWIDTH 13 0
BBX 12 17 0 -5
BITMAP
1FC0
7FE0
78F0
F0E0
F000
F000
F000
F000
F820
7C70
7FE0
1FC0
0600
0700
1180
1F80
0F00
ENDCHAR

STARTCHAR egrave
ENCODING 232
SWIDTH 568 0
DWIDTH 14 0
BBX 13 17 0 0
BITMAP
1C00
1E00
0F00
0380
0000
1FC0
7DF0
78F0
F8F8
FFF8
FFF8
F000
F000
F810
7C78
7FF0
1FC0
ENDCHAR

STARTCHAR eacute
ENCODING 233
SWIDTH 568 0
DWIDTH 14 0
BBX 13 17 0 0
BITMAP
0380
0780
0F00
1C00
0000
1FC0
7DF0
78F0
F8F8
FFF8
FFF8
F000
F000
F810
7C78
7FF0
1FC0
ENDCHAR

STARTCHAR ecircumflex
ENCODING 234
SWIDTH 568 0
DWIDTH 14 0
BBX 13 17 0 0
BITMAP
0600
0F00
1F80
30C0
0000
1FC0
7DF0
78F0
F8F8
FFF8
FFF8
F000
F000
F810
7C78
7FF0
1FC0
ENDCHAR

STARTCHAR edieresis
ENCODING 235
SWIDTH 568 0
DWIDTH 14 0
BBX 13 16 0 0
BITMAP
18C0
18C0
0000
0000
1FC0
7DF0
78F0
F8F8
FFF8
FFF8
F000
F000
F810
7C78
7FF0
1FC0
ENDCHAR

STARTCHAR igrave
ENCODING 236
SWIDTH 355 0
DWIDTH 9 0
BBX 8 17 0 0
BITMAP
70
78
3C
0E
00
3C
FC
FC
3C
3C
3C
3C
3C
3C
3C
7E
FF
ENDCHAR

STARTCHAR iacute
ENCODING 237
SWIDTH 355 0
DWIDTH 9 0
BBX 8 17 0 0
BITMAP
0E
1E
3C
70
00
3C
FC
FC
3C
3C
3C
3C
3C
3C
3C
7E
FF
ENDCHAR

STARTCHAR icircumflex
ENCODING 238
SWIDTH 355 0
DWIDTH 9 0
BBX 8 17 0 0
BITMAP
18
3C
7E
C3
00
3C
FC
FC
3C
3C
3C
3C
3C
3C
3C
7E
FF
ENDCHAR

STARTCHAR idieresis
ENCODING 239
SWIDTH 355 0
DWIDTH 9 0
BBX 8 16 0 0
BITMAP
C6
C6
00
00
3C
FC
FC
3C
3C
3C
3C
3C
3C
3C
7E
FF
ENDCHAR

STARTCHAR eth
ENCODING 240
SWIDTH 616 0
DWIDTH 16 0
BBX 14 17 0 0
BITMAP
3860
0F80
0F80
71C0
00E0
1FF0
7FF8
7878
F87C
F03C
F03C
F03C
F03C
F87C
7878
7FF8
1FE0
ENDCHAR

STARTCHAR ntilde
ENCODING 241
SWIDTH 672 0
DWIDTH 17 0
BBX 16 17 0 0
BITMAP
0798
0FF0
19E0
0000
0000
1DF0
FFF8
FE7C
3C3C
3C3C
3C3C
3C3C
3C3C
3C3C
3C3C
FE7F
FE7F
ENDCHAR

STARTCHAR ograve
ENCODING 242
SWIDTH 616 0
DWIDTH 16 0
BBX 14 17 0 0
BITMAP
0E00
0F00
0780
01C0
0000
1FE0
7FF8
7878
F87C
F03C
F03C
F03C
F03C
F87C
7878
7FF8
1FE0
ENDCHAR

STARTCHAR oacute
ENCODING 243
SWIDTH 616 0
DWIDTH 16 0
BBX 14 17 0 0
BITMAP
01C0
03C0
0780
0E00
0000
1FE0
7FF8
7878
F87C
F03C
F03C
F03C
F03C
F87C
7878
7FF8
1FE0
ENDCHAR

STARTCHAR ocircumflex
ENCODING 244
SWIDTH 616 0
DWIDTH 16 0
BBX 14 17 0 0
BITMAP
0300
0780
0FC0
1860
0000
1FE0
7FF8
7878
F87C
F03C
F03C
F03C
F03C
F87C
7878
7FF8
1FE0
ENDCHAR

STARTCHAR otilde
ENCODING 245
SWIDTH 616 0
DWIDTH 16 0
BBX 14 17 0 0
BITMAP
0F30
1FE0
33C0
0000
0000
1FE0
7FF8
7878
F87C
F03C
F03C
F03C
F03C
F87C
7878
7FF8
1FE0
ENDCHAR

STARTCHAR odieresis
ENCODING 246
SWIDTH 616 0
DWIDTH 16 0
BBX 14 16 0 0
BITMAP
18C0
18C0
0000
0000
1FE0
7FF8
7878
F87C
F03C
F03C
F03C
F03C
F87C
7878
7FF8
1FE0
ENDCHAR

STARTCHAR divide
ENCODING 247
SWIDTH 620 0
DWIDTH 15 0
BBX 11 12 1 0
BITMAP
0E00
0E00
0E00
0000
0000
FFE0
FFE0
0000
0000
0E00
0E00
0E00
ENDCHAR

STARTCHAR oslash
ENCODING 248
SWIDTH 617 0
DWIDTH 16 0
BBX 14 14 0 -1
BITMAP
0030
1FF0
7FF8
78F8
F9BC
F1BC
F33C
F73C
F63C
F67C
7C78
7FF8
3FE0
3000
ENDCHAR

STARTCHAR ugrave
ENCODING 249
SWIDTH 660 0
DWIDTH 16 0
BBX 16 17 -1 0
BITMAP
0700
0780
03C0
00E0
0000
1C1C
FCFC
FCFC
3C3C
3C3C
3C3C
3C3C
3C3C
3C3C
3E7C
1FFF
0FDF
ENDCHAR

STARTCHAR uacute
ENCODING 250
SWIDTH 660 0
DWIDTH 16 0
BBX 16 17 -1 0
BITMAP
00E0
01E0
03C0
0700
0000
1C1C
FCFC
FCFC
3C3C
3C3C
3C3C
3C3C
3C3C
3C3C
3E7C
1FFF
0FDF
ENDCHAR

STARTCHAR ucircumflex
ENCODING 251
SWIDTH 660 0
DWIDTH 16 0
BBX 16 17 -1 0
BITMAP
0180
03C0
07E0
0C30
0000
1C1C
FCFC
FCFC
3C3C
3C3C
3C3C
3C3C
3C3C
3C3C
3E7C
1FFF
0FDF
ENDCHAR

STARTCHAR udieresis
ENCODING 252
SWIDTH 660 0
DWIDTH 16 0
BBX 16 16 -1 0
BITMAP
0C60
0C60
0000
0000
1C1C
FCFC
FCFC
3C3C
3C3C
3C3C
3C3C
3C3C
3C3C
3E7C
1FFF
0FDF
ENDCHAR

STARTCHAR yacute
ENCODING 253
SWIDTH 607 0
DWIDTH 14 0
BBX 15 23 -1 -6
BITMAP
0070
00F0
01E0
0380
0000
FF7E
FF7E
3C18
3C38
1E30
1E70
0E60
0FE0
07C0
07C0
0380
0380
0380
0300
6700
FE00
FE00
7C00
ENDCHAR

STARTCHAR thorn
ENCODING 254
SWIDTH 639 0
DWIDTH 15 0
BBX 15 23 -1 -6
BITMAP
1C00
FC00
FC00
3C00
3C00
3DF0
3FFC
3E3C
3C3E
3C1E
3C1E
3C1E
3C1E
3C3E
3E3C
3FFC
3DF0
3C00
3C00
3C00
3C00
FF00
FF00
ENDCHAR

STARTCHAR ydieresis
ENCODING 255
SWIDTH 607 0
DWIDTH 14 0
BBX 15 22 -1 -6
BITMAP
0C60
0C60
0000
0000
FF7E
FF7E
3C18
3C38
1E30
1E70
0E60
0FE0
07C0
07C0
0380
0380
0380
0300
6700
FE00
FE00
7C00
ENDCHAR
ENDFONT
